<svg xmlns="http://www.w3.org/2000/svg" width="20" height="20">
	<path fill="white" d="M10 0C4.477 0 0 4.477 0 10s4.477 10 10 10c5.314 0 9.66-4.145 9.98-9.379-.469.007-.94.001-1.602-.014-.066 0-.178-.079-.218-.131-.145-.196-.239-.308-.325-.493-.022-.047.007-.138.051-.167.583-.379 1.067-.551 1.644-.771a.522.522 0 01.172-.034c.06 0 .116.013.148.054.03.04.074.1.12.165C19.579 4.067 15.265 0 10 0zM1.468 7.4c.01 0 .02 0 .03.002.43.056.985.127 1.441.284l3.506 1.202c.17.058.496.318.47.497-.026.17-.242.302-.507.267l-3.687-.492c-.414-.055-.691-.236-.857-.44a3.704 3.704 0 01-.595-1.078c-.052-.142.054-.247.199-.243zm3.127 3.043s4.052 1.514 8.154 1.827c4.101.312 4.839-.96 4.839-.96s-.668 3.417-4.418 3.189c-4.137-.252-8.575-4.056-8.575-4.056z"/>
</svg>
